<svg width="40" height="40" viewBox="0 0 40 40" fill="none" xmlns="http://www.w3.org/2000/svg"><path fill-rule="evenodd" clip-rule="evenodd" d="M7.5 7.5C6.11929 7.5 5 8.61929 5 10V32.5C5 33.8807 6.11929 35 7.5 35H32.5C33.8807 35 35 33.8807 35 32.5V10C35 8.61929 33.8807 7.5 32.5 7.5H7.5ZM2.5 10C2.5 7.23858 4.73858 5 7.5 5H32.5C35.2614 5 37.5 7.23858 37.5 10V32.5C37.5 35.2614 35.2614 37.5 32.5 37.5H7.5C4.73858 37.5 2.5 35.2614 2.5 32.5V10Z" fill="currentColor"></path><path d="M23.125 21.25C24.1605 21.25 25 20.4105 25 19.375C25 18.3395 24.1605 17.5 23.125 17.5C22.0895 17.5 21.25 18.3395 21.25 19.375C21.25 20.4105 22.0895 21.25 23.125 21.25Z" fill="currentColor"></path><path d="M29.375 21.25C30.4105 21.25 31.25 20.4105 31.25 19.375C31.25 18.3395 30.4105 17.5 29.375 17.5C28.3395 17.5 27.5 18.3395 27.5 19.375C27.5 20.4105 28.3395 21.25 29.375 21.25Z" fill="currentColor"></path><path fill-rule="evenodd" clip-rule="evenodd" d="M10 2.5C10.6904 2.5 11.25 3.05964 11.25 3.75V6.25C11.25 6.94036 10.6904 7.5 10 7.5C9.30964 7.5 8.75 6.94036 8.75 6.25V3.75C8.75 3.05964 9.30964 2.5 10 2.5ZM30 2.5C30.6904 2.5 31.25 3.05964 31.25 3.75V6.25C31.25 6.94036 30.6904 7.5 30 7.5C29.3096 7.5 28.75 6.94036 28.75 6.25V3.75C28.75 3.05964 29.3096 2.5 30 2.5Z" fill="currentColor"></path><path fill-rule="evenodd" clip-rule="evenodd" d="M3.75 11.25H36.25V13.75H3.75V11.25Z" fill="currentColor"></path></svg>