<svg width="100" height="100" viewBox="0 0 100 100" fill="none" xmlns="http://www.w3.org/2000/svg"><path fill-rule="evenodd" clip-rule="evenodd" d="M15.8715 59.5763C15.0186 56.5302 14.5625 53.3184 14.5625 50C14.5625 46.6816 15.0186 43.4698 15.8715 40.4237H34.068C33.787 43.4982 33.639 46.7066 33.639 50C33.639 53.2935 33.787 56.5018 34.068 59.5763H15.8715ZM17.7749 64.7638H34.6857C35.4065 69.6341 36.4771 74.0481 37.8262 77.775C38.7029 80.1969 39.7195 82.3909 40.8756 84.2518C30.5882 81.5183 22.1388 74.2732 17.7749 64.7638ZM50 90.625C27.5636 90.625 9.375 72.4364 9.375 50C9.375 27.5636 27.5636 9.375 50 9.375C72.4364 9.375 90.625 27.5636 90.625 50C90.625 72.4364 72.4364 90.625 50 90.625ZM50 85.4376C49.1443 85.4376 47.9899 84.9664 46.6117 83.3561C45.2415 81.755 43.8901 79.2861 42.7039 76.0093C41.5533 72.8308 40.6044 69.0218 39.9333 64.7638H60.0668C59.3957 69.0218 58.4467 72.8308 57.2961 76.0093C56.1099 79.2861 54.7585 81.755 53.3883 83.3561C52.0101 84.9664 50.8557 85.4376 50 85.4376ZM65.3144 64.7638C64.5935 69.6341 63.523 74.0481 62.1738 77.775C61.2971 80.1969 60.2805 82.3909 59.1244 84.2518C69.4119 81.5183 77.8612 74.2732 82.2251 64.7638H65.3144ZM60.7218 59.5763H39.2783C38.9845 56.5332 38.8264 53.3234 38.8264 50C38.8264 46.6766 38.9845 43.4668 39.2783 40.4237H60.7218C61.0155 43.4668 61.1736 46.6766 61.1736 50C61.1736 53.3234 61.0155 56.5332 60.7218 59.5763ZM65.932 40.4237C66.213 43.4982 66.3611 46.7066 66.3611 50C66.3611 53.2935 66.213 56.5018 65.932 59.5763H84.1285C84.9814 56.5302 85.4376 53.3184 85.4376 50C85.4376 46.6816 84.9814 43.4698 84.1285 40.4237H65.932ZM60.0668 35.2363H39.9333C40.6044 30.9783 41.5533 27.1692 42.7039 23.9908C43.8901 20.714 45.2415 18.245 46.6117 16.644C47.9899 15.0336 49.1443 14.5625 50 14.5625C50.8557 14.5625 52.0101 15.0336 53.3883 16.644C54.7585 18.245 56.1099 20.714 57.2961 23.9908C58.4467 27.1692 59.3957 30.9783 60.0668 35.2363ZM59.1244 15.7482C60.2805 17.6091 61.2971 19.8032 62.1738 22.225C63.523 25.9519 64.5935 30.3659 65.3144 35.2363H82.2251C77.8612 25.7268 69.4119 18.4817 59.1244 15.7482ZM40.8756 15.7482C39.7195 17.6091 38.7029 19.8032 37.8262 22.225C36.4771 25.9519 35.4065 30.3659 34.6857 35.2363H17.7749C22.1388 25.7268 30.5882 18.4817 40.8756 15.7482Z" fill="currentColor"></path><path fill-rule="evenodd" clip-rule="evenodd" d="M16.6387 58.5763C15.9362 55.8355 15.5625 52.9621 15.5625 50C15.5625 47.0379 15.9362 44.1645 16.6387 41.4237H32.9784C32.7556 44.1941 32.639 47.0641 32.639 50C32.639 52.9359 32.7556 55.806 32.9784 58.5763H16.6387ZM15.8715 59.5763C15.0186 56.5302 14.5625 53.3184 14.5625 50C14.5625 46.6816 15.0186 43.4698 15.8715 40.4237H34.068C34.0377 40.7555 34.0089 41.0889 33.9817 41.4237C33.7568 44.1917 33.639 47.062 33.639 50C33.639 52.938 33.7568 55.8084 33.9817 58.5763C34.0089 58.9111 34.0377 59.2445 34.068 59.5763H15.8715ZM33.8271 65.7638C34.5521 70.3512 35.5897 74.5345 36.8859 78.1154C37.4585 79.6971 38.0929 81.1931 38.7908 82.5724C30.3627 79.6725 23.4116 73.5918 19.374 65.7638H33.8271ZM34.6857 64.7638C35.4065 69.6341 36.4771 74.0481 37.8262 77.775C38.5148 79.6771 39.2896 81.4387 40.1506 83.0087C40.3858 83.4377 40.6275 83.8524 40.8756 84.2518C40.4044 84.1266 39.9369 83.9919 39.4736 83.8479C30.1802 80.9608 22.5255 74.3517 18.253 65.7638C18.0886 65.4333 17.9292 65.0999 17.7749 64.7638H34.6857ZM8.375 50C8.375 72.9887 27.0113 91.625 50 91.625C72.9887 91.625 91.625 72.9887 91.625 50C91.625 27.0113 72.9887 8.375 50 8.375C27.0113 8.375 8.375 27.0113 8.375 50ZM50 84.4376C49.5442 84.4376 48.6432 84.1917 47.3715 82.7058C46.108 81.2296 44.8075 78.8824 43.6442 75.6689C42.6235 72.8492 41.759 69.5038 41.112 65.7638H58.888C58.2411 69.5038 57.3765 72.8492 56.3558 75.6689C55.1925 78.8824 53.892 81.2296 52.6286 82.7058C51.3569 84.1917 50.4558 84.4376 50 84.4376ZM59.9026 65.7638C59.2446 69.6193 58.3559 73.0818 57.2961 76.0093C56.1099 79.2861 54.7585 81.755 53.3883 83.3561C52.0101 84.9664 50.8557 85.4376 50 85.4376C49.1443 85.4376 47.9899 84.9664 46.6117 83.3561C45.2415 81.755 43.8901 79.2861 42.7039 76.0093C41.6442 73.0818 40.7555 69.6193 40.0974 65.7638C40.041 65.4333 39.9863 65.0999 39.9333 64.7638H60.0668C60.0138 65.0999 59.9591 65.4333 59.9026 65.7638ZM66.173 65.7638C65.448 70.3512 64.4104 74.5345 63.1141 78.1154C62.5415 79.6971 61.9071 81.1931 61.2092 82.5724C69.6374 79.6725 76.5884 73.5918 80.6261 65.7638H66.173ZM81.747 65.7638C77.4745 74.3517 69.8199 80.9608 60.5264 83.8479C60.0631 83.9919 59.5957 84.1266 59.1244 84.2518C59.3725 83.8524 59.6142 83.4377 59.8495 83.0087C60.7104 81.4387 61.4853 79.6771 62.1738 77.775C63.523 74.0481 64.5935 69.6341 65.3144 64.7638H82.2251C82.0708 65.0999 81.9114 65.4333 81.747 65.7638ZM40.1909 58.5763C39.9534 55.8359 39.8264 52.9642 39.8264 50C39.8264 47.0358 39.9534 44.1641 40.1909 41.4237H59.8092C60.0466 44.1641 60.1736 47.0358 60.1736 50C60.1736 52.9642 60.0466 55.8359 59.8092 58.5763H40.1909ZM60.7218 59.5763H39.2783C38.9845 56.5332 38.8264 53.3234 38.8264 50C38.8264 46.6766 38.9845 43.4668 39.2783 40.4237H60.7218C61.0155 43.4668 61.1736 46.6766 61.1736 50C61.1736 53.3234 61.0155 56.5332 60.7218 59.5763ZM65.932 40.4237H84.1285C84.9814 43.4698 85.4376 46.6816 85.4376 50C85.4376 53.3184 84.9814 56.5302 84.1285 59.5763H65.932C65.9623 59.2445 65.9911 58.9111 66.0183 58.5763C66.2433 55.8084 66.3611 52.938 66.3611 50C66.3611 47.062 66.2433 44.1917 66.0183 41.4237C65.9911 41.0889 65.9623 40.7555 65.932 40.4237ZM67.0216 41.4237H83.3614C84.0638 44.1645 84.4376 47.0379 84.4376 50C84.4376 52.9621 84.0638 55.8355 83.3614 58.5763H67.0216C67.2445 55.806 67.3611 52.9359 67.3611 50C67.3611 47.0641 67.2445 44.1941 67.0216 41.4237ZM39.9333 35.2363C39.9863 34.9001 40.041 34.5667 40.0974 34.2363C40.7555 30.3808 41.6442 26.9183 42.7039 23.9908C43.8901 20.714 45.2415 18.245 46.6117 16.644C47.9899 15.0336 49.1443 14.5625 50 14.5625C50.8557 14.5625 52.0101 15.0336 53.3883 16.644C54.7585 18.245 56.1099 20.714 57.2961 23.9908C58.3559 26.9183 59.2446 30.3808 59.9026 34.2363C59.9591 34.5667 60.0138 34.9001 60.0668 35.2363H39.9333ZM41.112 34.2363C41.759 30.4962 42.6235 27.1508 43.6442 24.3312C44.8075 21.1177 46.108 18.7705 47.3715 17.2942C48.6432 15.8083 49.5442 15.5625 50 15.5625C50.4558 15.5625 51.3569 15.8083 52.6286 17.2942C53.892 18.7705 55.1925 21.1177 56.3558 24.3312C57.3765 27.1508 58.2411 30.4962 58.888 34.2363H41.112ZM59.1244 15.7482C59.5957 15.8735 60.0631 16.0081 60.5264 16.1521C69.8199 19.0392 77.4745 25.6483 81.747 34.2363C81.9114 34.5667 82.0708 34.9001 82.2251 35.2363H65.3144C64.5935 30.3659 63.523 25.9519 62.1738 22.225C61.4853 20.3229 60.7104 18.5614 59.8495 16.9913C59.6142 16.5623 59.3725 16.1476 59.1244 15.7482ZM61.2092 17.4277C69.6374 20.3276 76.5884 26.4082 80.6261 34.2363H66.173C65.448 29.6488 64.4104 25.4655 63.1141 21.8847C62.5415 20.3029 61.9071 18.8069 61.2092 17.4277ZM38.7908 17.4277C38.0929 18.8069 37.4585 20.3029 36.8859 21.8847C35.5897 25.4655 34.5521 29.6488 33.8271 34.2363H19.374C23.4116 26.4082 30.3627 20.3276 38.7908 17.4277ZM40.1506 16.9913C40.3858 16.5623 40.6275 16.1476 40.8756 15.7482C40.4044 15.8735 39.9369 16.0081 39.4736 16.1521C30.1802 19.0392 22.5255 25.6483 18.253 34.2363C18.0886 34.5667 17.9292 34.9001 17.7749 35.2363H34.6857C35.4065 30.3659 36.4771 25.9519 37.8262 22.225C38.5148 20.3229 39.2896 18.5614 40.1506 16.9913ZM9.375 50C9.375 72.4364 27.5636 90.625 50 90.625C72.4364 90.625 90.625 72.4364 90.625 50C90.625 27.5636 72.4364 9.375 50 9.375C27.5636 9.375 9.375 27.5636 9.375 50Z" fill="currentColor"></path></svg>