<svg width="96" height="96" viewBox="0 0 96 96" fill="none" xmlns="http://www.w3.org/2000/svg"><path d="M48 63.075C43.0562 63.075 38.8536 66.248 37.3173 70.6687L37.1333 70.6377L36.6938 70.6125H14.0813C11.9997 70.6125 10.3125 72.2997 10.3125 74.3812C10.3125 76.3139 11.7674 77.907 13.6417 78.1247L14.0812 78.1499H36.6937C36.9066 78.1499 37.1159 78.132 37.3194 78.0984C38.8535 82.5144 43.0561 85.6874 48 85.6874C52.9439 85.6874 57.1464 82.5144 58.6827 78.0937L58.8667 78.1247L59.3062 78.1499H81.9187C84.0003 78.1499 85.6875 76.4628 85.6875 74.3812C85.6875 72.4485 84.2326 70.8554 82.3583 70.6377L81.9188 70.6125H59.3063C59.0933 70.6125 58.8841 70.6304 58.6806 70.664C57.1465 66.248 52.9439 63.075 48 63.075V63.075ZM48 70.6125C50.0815 70.6125 51.7687 72.2997 51.7687 74.3812C51.7687 76.4628 50.0815 78.15 48 78.15C45.9184 78.15 44.2312 76.4628 44.2312 74.3812C44.2312 72.2997 45.9184 70.6125 48 70.6125ZM74.3812 36.6937C69.4374 36.6937 65.2349 39.8668 63.6986 44.2875L63.5145 44.2565L63.075 44.2312H14.0813C11.9997 44.2312 10.3125 45.9184 10.3125 48C10.3125 49.9327 11.7674 51.5258 13.6417 51.7434L14.0812 51.7687H63.075C63.2879 51.7687 63.4971 51.7508 63.7006 51.7172C65.2348 56.1332 69.4373 59.3062 74.3813 59.3062C80.6254 59.3062 85.6875 54.2441 85.6875 48C85.6875 41.7558 80.6254 36.6937 74.3813 36.6937L74.3812 36.6937ZM74.3812 44.2312C76.4628 44.2312 78.15 45.9184 78.15 48C78.15 50.0816 76.4628 51.7687 74.3812 51.7687C72.2997 51.7687 70.6125 50.0816 70.6125 48C70.6125 45.9184 72.2997 44.2312 74.3812 44.2312ZM32.925 10.3125C27.9812 10.3125 23.7786 13.4855 22.2423 17.9063L22.0583 17.8752L21.6188 17.85H14.0813C11.9997 17.85 10.3125 19.5372 10.3125 21.6188C10.3125 23.5514 11.7674 25.1446 13.6417 25.3622L14.0812 25.3874H21.6187C21.8317 25.3874 22.0409 25.3696 22.2444 25.3359C23.7785 29.7519 27.9811 32.925 32.925 32.925C37.8689 32.925 42.0714 29.7519 43.6077 25.3312L43.7917 25.3622L44.2312 25.3875H81.9187C84.0003 25.3875 85.6875 23.7003 85.6875 21.6187C85.6875 19.686 84.2326 18.0929 82.3583 17.8753L81.9188 17.85H44.2313C44.0184 17.85 43.8091 17.8679 43.6056 17.9015C42.0715 13.4855 37.8689 10.3125 32.925 10.3125V10.3125ZM32.925 17.85C35.0065 17.85 36.6937 19.5372 36.6937 21.6187C36.6937 23.7003 35.0065 25.3875 32.925 25.3875C30.8434 25.3875 29.1562 23.7003 29.1562 21.6187C29.1562 19.5372 30.8434 17.85 32.925 17.85Z" fill="currentColor"></path></svg>