<svg width="64" height="64" viewBox="0 0 64 64" fill="none" xmlns="http://www.w3.org/2000/svg"><path d="M31.977 54.0004C15.4237 54.0004 1.95263 40.5293 1.95263 23.9761C1.95263 22.8752 2.85333 21.9745 3.95421 21.9745C7.05669 21.9745 10.0991 22.4548 13.0213 23.3756C13.2415 20.1931 13.9421 17.0907 15.1429 14.1283C15.3431 13.6279 15.7434 13.2276 16.2438 13.0274C16.7442 12.8272 17.3047 12.8473 17.8051 13.0674C20.5874 14.3084 23.1093 15.9297 25.3311 17.8712C26.6921 15.189 28.4335 12.7472 30.5352 10.5855C31.2958 9.80484 32.6568 9.80484 33.4175 10.5855C35.5191 12.7472 37.2405 15.2092 38.6216 17.8712C40.8633 15.9297 43.3854 14.3085 46.1475 13.0674C46.6479 12.8472 47.2083 12.8272 47.7088 13.0274C48.2093 13.2276 48.6095 13.6279 48.8097 14.1283C50.0106 17.0706 50.7112 20.1731 50.9313 23.3756C53.7936 22.4749 56.836 21.9745 59.9984 21.9745C61.0993 21.9745 62 22.8752 62 23.9761C62 40.5293 48.5289 54.0004 31.9756 54.0004H31.977ZM27.4334 49.5769C24.0907 44.7532 22.2292 39.0887 21.9891 33.2838C19.7073 31.0819 17.0852 29.3206 14.1429 28.0597C11.5609 26.9588 8.83871 26.2783 6.01638 26.0581C6.95713 37.9074 15.8841 47.5355 27.4131 49.5762L27.4334 49.5769ZM16.9651 24.9777C18.8265 25.8784 20.5879 26.9593 22.2093 28.2002C22.4695 26.0385 22.9699 23.9167 23.6904 21.8151C22.029 20.2138 20.1676 18.8127 18.1059 17.6918C17.3654 20.0336 17.0051 22.4757 16.9651 24.9777ZM31.9772 14.9898C30.2558 17.0914 28.8748 19.4533 27.8539 22.0153C26.5329 25.378 25.9324 28.8808 25.9724 32.3635V32.4836C26.0724 37.6076 27.5936 42.6115 30.4359 46.895C31.4367 41.0904 34.0988 35.8662 37.9419 31.7034C37.9219 28.3608 37.3214 25.0983 36.1004 22.0158C35.0796 19.4538 33.6987 17.0914 31.9772 14.9898ZM45.848 17.6919C43.8064 18.8128 41.9249 20.1939 40.2836 21.7751C41.0041 23.8768 41.4645 26.0385 41.7247 28.2403C43.3659 26.9793 45.1273 25.8985 46.9889 24.9978C46.9489 22.4958 46.5686 20.0537 45.848 17.6919ZM34.0588 49.917C46.7487 48.9163 56.8966 38.7482 57.9176 26.0582C45.2276 27.059 35.0797 37.2271 34.0588 49.917Z" fill="currentColor"></path></svg>