<svg width="18" height="18" viewBox="0 0 18 18" fill="none" xmlns="http://www.w3.org/2000/svg"><path d="M16.1589 8.08223C15.7103 8.00747 15.2804 8.3439 15.2057 8.79247C15.0188 10.1195 14.4207 11.3344 13.4675 12.2876C12.047 13.708 10.1219 14.2874 8.27154 14.0258L7.1875 15.521C7.82297 15.6892 8.45845 15.764 9.09392 15.764C11.0938 15.764 13.1124 14.9977 14.645 13.4651C15.8598 12.2502 16.6262 10.7176 16.8691 9.01675C16.9439 8.54949 16.6075 8.1383 16.1589 8.08223Z" fill="currentColor"></path><path d="M16.1589 1.03608C15.6916 1.03608 15.3178 1.40989 15.3178 1.87715V3.07334L14.645 2.40048C11.5797 -0.664744 6.62677 -0.664744 3.56155 2.40048C1.54298 4.41905 0.87013 7.27868 1.52429 9.87664L2.96346 7.89546C2.98215 6.32547 3.58024 4.77416 4.75773 3.57798C7.1688 1.16692 11.0751 1.16692 13.4675 3.57798L14.1403 4.25083H12.9441C12.4769 4.25083 12.1031 4.62464 12.1031 5.0919C12.1031 5.55916 12.4769 5.93297 12.9441 5.93297H16.1589C16.6261 5.93297 16.9999 5.55916 16.9999 5.0919V1.87715C16.9999 1.40989 16.6261 1.03608 16.1589 1.03608Z" fill="currentColor"></path><path d="M9.07517 3.57786C8.60791 3.57786 8.23411 3.95167 8.23411 4.41893V7.93272C8.23411 8.30653 8.47708 8.64296 8.85089 8.73641L11.4302 9.46534C11.5049 9.48403 11.5797 9.50272 11.6544 9.50272C12.0283 9.50272 12.3647 9.25974 12.4581 8.88593C12.589 8.43737 12.3273 7.9701 11.8787 7.85796L9.91624 7.29725V4.41893C9.91624 3.95167 9.54243 3.57786 9.07517 3.57786Z" fill="currentColor"></path><path d="M7.15012 11.2598H5.71095L6.14083 8.1011C6.2156 7.55908 5.52405 7.29741 5.20631 7.72729L1.18788 13.2783C0.944902 13.6148 1.18788 14.1007 1.59907 14.1007H3.03823L2.60835 17.2594C2.53359 17.8014 3.22513 18.0631 3.54287 17.6332L7.5613 12.0635C7.82297 11.727 7.57999 11.2598 7.15012 11.2598Z" fill="currentColor"></path></svg>